<svg width="207" height="42" viewBox="0 0 207 42" fill="none" xmlns="http://www.w3.org/2000/svg">
<circle cx="21" cy="21" r="20.5" fill="white" stroke="#EBEBEB"/>
<path d="M21 14.25C19.665 14.25 18.3599 14.6459 17.2499 15.3876C16.1399 16.1293 15.2747 17.1835 14.7638 18.4169C14.2529 19.6503 14.1193 21.0075 14.3797 22.3169C14.6402 23.6262 15.283 24.829 16.227 25.773C17.171 26.717 18.3738 27.3598 19.6831 27.6203C20.9925 27.8808 22.3497 27.7471 23.5831 27.2362C24.8165 26.7253 25.8707 25.8601 26.6124 24.7501C27.3541 23.6401 27.75 22.335 27.75 21C27.748 19.2104 27.0362 17.4947 25.7708 16.2292C24.5053 14.9638 22.7896 14.252 21 14.25ZM26.1956 20.25H26.0006C25.1287 20.2505 24.2601 20.3567 23.4138 20.5662C23.2302 20.0571 23.0083 19.5625 22.75 19.0869C23.503 18.6086 24.1937 18.0386 24.8063 17.39C25.5548 18.1761 26.0404 19.1756 26.1956 20.25ZM23.625 16.4562C23.118 16.9765 22.5516 17.4355 21.9375 17.8238C21.3873 17.0845 20.7451 16.4185 20.0263 15.8419C21.2607 15.6068 22.5385 15.825 23.625 16.4562ZM18.3463 16.4731C19.2016 17.0305 19.9596 17.7245 20.59 18.5275C19.4536 19.0056 18.2329 19.2513 17 19.25C16.6875 19.25 16.375 19.2337 16.0663 19.2031C16.4875 18.0569 17.293 17.0922 18.3456 16.4731H18.3463ZM15.75 21C15.75 20.8919 15.7544 20.785 15.7606 20.6788C16.1721 20.7259 16.5859 20.7497 17 20.75C18.5267 20.7513 20.0361 20.427 21.4275 19.7987C21.6434 20.1938 21.8298 20.6043 21.985 21.0269C21.522 21.2127 21.0725 21.4307 20.64 21.6794C19.3209 22.441 18.1776 23.4727 17.285 24.7069C16.798 24.2203 16.4117 23.6424 16.1483 23.0063C15.8849 22.3702 15.7496 21.6885 15.75 21ZM18.4856 25.6075C19.2562 24.5353 20.246 23.6392 21.3894 22.9788C21.7124 22.7932 22.0463 22.6275 22.3894 22.4825C22.5002 23.0592 22.5561 23.6452 22.5563 24.2325C22.5567 24.8482 22.496 25.4625 22.375 26.0662C21.0682 26.4218 19.6745 26.2574 18.4863 25.6075H18.4856ZM24.0038 25.3019C24.0388 24.9469 24.0575 24.5894 24.0575 24.2306C24.0571 23.4842 23.9792 22.7398 23.825 22.0094C24.5373 21.8376 25.2673 21.7505 26 21.75H26.1944C26.0912 22.4603 25.8436 23.1419 25.4668 23.7527C25.09 24.3636 24.5921 24.8908 24.0038 25.3019Z" fill="#22262F"/>
<circle cx="76" cy="21" r="20.5" fill="white" stroke="#EBEBEB"/>
<path d="M71.3219 17.7979C72.1275 17.7979 72.7806 17.1449 72.7806 16.3393C72.7806 15.5337 72.1275 14.8806 71.3219 14.8806C70.5163 14.8806 69.8633 15.5337 69.8633 16.3393C69.8633 17.1449 70.5163 17.7979 71.3219 17.7979Z" fill="#22262F"/>
<path d="M74.1579 18.9033V26.9959H76.6706V22.9939C76.6706 21.9379 76.8693 20.9153 78.1786 20.9153C79.4699 20.9153 79.4859 22.1226 79.4859 23.0606V26.9966H81.9999V22.5586C81.9999 20.3786 81.5306 18.7033 78.9826 18.7033C77.7593 18.7033 76.9393 19.3746 76.6039 20.0099H76.5699V18.9033H74.1579ZM70.0633 18.9033H72.5799V26.9959H70.0633V18.9033Z" fill="#22262F"/>
<circle cx="131" cy="21" r="20.5" fill="white" stroke="#EBEBEB"/>
<g clip-path="url(#clip0_1_172)">
<path d="M134.313 24.2847C134.482 24.4418 134.682 24.5629 134.9 24.6404C135.118 24.718 135.349 24.7505 135.58 24.736C135.946 24.7453 136.304 24.634 136.601 24.4193C136.842 24.2627 137.025 24.03 137.12 23.7593H138.843C138.66 24.5312 138.212 25.2143 137.577 25.69C136.967 26.0945 136.247 26.2995 135.516 26.2767C134.994 26.2835 134.476 26.1853 133.993 25.988C133.556 25.8059 133.164 25.5303 132.845 25.1807C132.527 24.8144 132.282 24.3902 132.125 23.9313C131.948 23.4183 131.862 22.8785 131.869 22.336C131.866 21.8027 131.955 21.2727 132.133 20.77C132.373 20.0632 132.831 19.4503 133.44 19.0188C134.049 18.5873 134.779 18.3593 135.525 18.3673C136.077 18.3559 136.622 18.4851 137.109 18.7427C137.55 18.984 137.93 19.3227 138.221 19.7327C138.519 20.1626 138.732 20.6452 138.85 21.1547C138.979 21.702 139.025 22.2653 138.987 22.8267H133.854C133.812 23.3533 133.977 23.876 134.313 24.2847ZM127.631 15.7227C128.064 15.7149 128.495 15.7592 128.917 15.8547C129.272 15.9321 129.609 16.0764 129.91 16.28C130.189 16.482 130.409 16.754 130.549 17.068C130.709 17.454 130.787 17.87 130.776 18.288C130.795 18.7475 130.677 19.2022 130.439 19.5954C130.188 19.9664 129.842 20.2629 129.437 20.4534C129.987 20.6015 130.466 20.9413 130.788 21.4113C131.097 21.9093 131.253 22.488 131.235 23.074C131.245 23.5412 131.149 24.0046 130.953 24.4287C130.772 24.7991 130.506 25.1218 130.177 25.3707C129.84 25.6173 129.459 25.7997 129.055 25.9087C128.637 26.0246 128.204 26.0827 127.77 26.0814H123V15.7227H127.631ZM127.475 24.3227C127.68 24.3253 127.885 24.3034 128.085 24.2567C128.268 24.2165 128.442 24.1413 128.596 24.0353C128.748 23.93 128.87 23.788 128.952 23.6227C129.047 23.4114 129.091 23.1807 129.079 22.95C129.1 22.7394 129.072 22.5269 128.998 22.3287C128.924 22.1305 128.805 21.952 128.651 21.8067C128.325 21.5666 127.925 21.4476 127.521 21.47H125.161V24.3227H127.475ZM136.565 20.3447C136.421 20.201 136.248 20.0899 136.058 20.0187C135.868 19.9475 135.665 19.9179 135.462 19.932C135.193 19.9216 134.926 19.9811 134.687 20.1047C134.497 20.2089 134.33 20.3493 134.195 20.518C134.074 20.6758 133.985 20.8549 133.931 21.046C133.881 21.2054 133.851 21.3694 133.839 21.5354H137.019C136.991 21.1022 136.833 20.6875 136.566 20.3454L136.565 20.3447ZM127.356 19.9127C127.696 19.9266 128.03 19.8248 128.305 19.624C128.571 19.3874 128.709 19.0374 128.678 18.682C128.687 18.4774 128.646 18.2736 128.559 18.088C128.485 17.9405 128.371 17.8173 128.229 17.7327C128.086 17.6396 127.924 17.5774 127.755 17.55C127.572 17.5142 127.385 17.4979 127.199 17.5013H125.161V19.922H127.356V19.9127ZM137.413 16.4147H133.429V17.4327H137.413V16.4147Z" fill="#22262F"/>
</g>
<circle cx="186" cy="21" r="20.5" fill="white" stroke="#EBEBEB"/>
<path d="M189.451 15.8285H191.291L187.271 20.3468L192 26.4952H188.297L185.397 22.7662L182.078 26.4952H180.237L184.537 21.6624L180 15.8285H183.797L186.419 19.2369L189.451 15.8285ZM188.805 25.4121H189.825L183.243 16.8547H182.149L188.805 25.4121Z" fill="#22262F"/>
<defs>
<clipPath id="clip0_1_172">
<rect width="16" height="16" fill="white" transform="translate(123 13)"/>
</clipPath>
</defs>
</svg>
